<?xml version="1.0" standalone="no"?>
<!DOCTYPE svg PUBLIC "-//W3C//DTD SVG 20010904//EN"
 "http://www.w3.org/TR/2001/REC-SVG-20010904/DTD/svg10.dtd">
<svg version="1.0" xmlns="http://www.w3.org/2000/svg"
 width="133.000000pt" height="133.000000pt" viewBox="0 0 133.000000 133.000000"
 preserveAspectRatio="xMidYMid meet">
<metadata>
Created by potrace 1.14, written by Peter Selinger 2001-2017
</metadata>
<g transform="translate(0.000000,133.000000) scale(0.100000,-0.100000)"
fill="#000000" stroke="none">
<path d="M400 1235 c0 -13 -7 -28 -16 -33 -15 -8 -15 -12 0 -40 21 -40 21
-172 1 -302 -8 -52 -15 -108 -15 -124 0 -28 1 -28 41 -23 48 6 57 13 41 29 -9
9 -12 84 -12 265 0 246 -1 253 -20 253 -15 0 -20 -7 -20 -25z"/>
<path d="M458 679 c-26 -10 -27 -12 -13 -32 23 -33 19 -74 -11 -104 -20 -20
-23 -28 -12 -34 29 -19 63 -5 116 44 27 27 32 38 32 79 0 34 -4 48 -14 48 -7
0 -26 2 -42 5 -16 2 -41 -1 -56 -6z"/>
<path d="M612 618 c4 -87 26 -90 62 -8 14 34 26 63 26 66 0 2 -20 4 -45 4
l-46 0 3 -62z"/>
<path d="M711 588 c-40 -88 -47 -97 -136 -173 l-94 -80 -1 -49 0 -50 33 32
c18 17 59 45 92 61 38 18 85 55 130 100 42 44 78 71 91 71 14 0 55 -38 128
-120 59 -66 111 -120 116 -120 11 0 40 29 40 39 0 4 -10 16 -21 27 -12 10 -53
72 -91 137 -85 144 -107 170 -161 196 -73 35 -79 32 -126 -71z"/>
<path d="M163 652 c-18 -9 -33 -18 -33 -22 0 -10 72 -43 100 -46 14 -2 54 -7
89 -13 35 -5 70 -7 77 -4 21 8 26 35 10 52 -13 12 -19 13 -39 2 -13 -7 -43
-11 -68 -9 -36 2 -45 7 -47 24 -2 13 -13 25 -25 28 -26 7 -24 7 -64 -12z"/>
<path d="M120 562 c0 -16 26 -40 50 -47 l25 -7 -22 21 c-13 12 -23 26 -23 31
0 6 -7 10 -15 10 -8 0 -15 -4 -15 -8z"/>
<path d="M81 481 c-16 -29 -14 -174 2 -169 24 8 37 53 35 117 -3 67 -18 88
-37 52z"/>
<path d="M373 454 c3 -16 8 -90 12 -164 3 -74 8 -147 11 -162 5 -23 0 -31 -28
-48 l-33 -20 53 0 52 0 0 199 c0 181 -2 199 -17 204 -10 2 -26 8 -37 12 -16 7
-18 4 -13 -21z"/>
<path d="M1123 239 l-22 -23 44 -52 c25 -29 45 -57 45 -62 0 -5 -10 -17 -22
-25 -22 -15 -21 -16 30 -16 47 -1 52 1 52 22 0 24 -44 104 -82 150 l-23 28
-22 -22z"/>
<path d="M250 134 c-30 -25 -65 -51 -79 -57 -25 -11 -24 -12 18 -15 36 -3 52
3 97 33 54 35 54 36 38 60 -9 14 -17 25 -18 25 -1 0 -26 -21 -56 -46z"/>
</g>
</svg>
